<svg width="10" height="20" viewBox="0 0 10 20" fill="none" xmlns="http://www.w3.org/2000/svg">
<path d="M0.319295 10.652H2.48929V19.6774C2.48929 19.8556 2.6322 20 2.80858 20H6.48788C6.66426 20 6.80718 19.8556 6.80718 19.6774V10.6945H9.30177C9.46397 10.6945 9.60043 10.5715 9.61895 10.4088L9.99783 7.08606C10.0082 6.99465 9.97956 6.9031 9.91903 6.83452C9.85842 6.76587 9.7717 6.72658 9.68071 6.72658H6.80731V4.64374C6.80731 4.01587 7.14193 3.69748 7.80197 3.69748C7.89604 3.69748 9.68071 3.69748 9.68071 3.69748C9.85708 3.69748 10 3.55303 10 3.3749V0.324968C10 0.146774 9.85708 0.0023871 9.68071 0.0023871H7.09154C7.07328 0.00148387 7.03273 0 6.97296 0C6.52371 0 4.96216 0.0890967 3.72866 1.23555C2.36195 2.506 2.55193 4.02716 2.59734 4.2909V6.72652H0.319295C0.142916 6.72652 0 6.8709 0 7.0491V10.3294C0 10.5075 0.142916 10.652 0.319295 10.652Z" fill="#181F22"/>
</svg>
