<svg width="20" height="17" viewBox="0 0 20 17" fill="none" xmlns="http://www.w3.org/2000/svg">
<path d="M19.5467 1.86849C19.2325 2.00628 18.9095 2.12257 18.5794 2.21698C18.9702 1.78002 19.2681 1.26586 19.45 0.703229C19.4908 0.577115 19.4485 0.439072 19.3437 0.35659C19.239 0.274045 19.0935 0.264158 18.9782 0.331712C18.2772 0.742779 17.521 1.03819 16.728 1.21094C15.9293 0.439199 14.8444 0 13.7228 0C11.3554 0 9.42934 1.90434 9.42934 4.24508C9.42934 4.42944 9.44114 4.61277 9.4645 4.79356C6.52677 4.53852 3.79561 3.11082 1.92014 0.836105C1.8533 0.755027 1.75033 0.711331 1.64491 0.719687C1.53943 0.727853 1.44465 0.786668 1.39136 0.877059C1.01098 1.52243 0.809882 2.26055 0.809882 3.01156C0.809882 4.03445 1.17924 5.00496 1.83169 5.7633C1.6333 5.69537 1.44078 5.61046 1.25704 5.50961C1.1584 5.45532 1.03801 5.45615 0.940011 5.51171C0.841946 5.56727 0.780463 5.66947 0.777882 5.78116C0.777431 5.79998 0.777431 5.8188 0.777431 5.83787C0.777431 7.36471 1.60852 8.73933 2.87917 9.48855C2.77 9.47777 2.66091 9.46214 2.55252 9.44167C2.44078 9.42055 2.32588 9.45927 2.25052 9.54354C2.17504 9.62775 2.15007 9.74512 2.18485 9.85229C2.65517 11.3042 3.86607 12.3721 5.32993 12.6977C4.11581 13.4496 2.72736 13.8434 1.26982 13.8434C0.965688 13.8434 0.659818 13.8258 0.360464 13.7907C0.211755 13.7733 0.0695618 13.8601 0.0189168 13.9999C-0.0317282 14.1398 0.0219491 14.2958 0.148465 14.3759C2.02091 15.563 4.186 16.1905 6.40954 16.1905C10.7808 16.1905 13.5153 14.1524 15.0394 12.4426C16.9401 10.3106 18.0301 7.48871 18.0301 4.70048C18.0301 4.584 18.0283 4.46637 18.0247 4.34913C18.7746 3.79051 19.4202 3.11446 19.9456 2.33742C20.0254 2.21941 20.0167 2.06344 19.9243 1.9548C19.8319 1.8461 19.6781 1.81096 19.5467 1.86849Z" fill="#1DB5D6"/>
</svg>
